<svg xmlns="http://www.w3.org/2000/svg" width="200" height="200" fill="none" viewBox="0 0 200 200"><g clip-path="url(#a)"><path fill="#8896FF" d="M171 99.967v.053h-.869c-.294 0-.588 0-.869.014-2.367.04-4.747.12-7.113.24-.415.014-.843.027-1.271.067q-1.042.04-2.086.12c-.107 0-.213.014-.307.027-.856.04-1.712.107-2.554.174-.134 0-.254.013-.388.027-.949.067-1.885.147-2.834.227-1.017.094-2.033.187-3.049.294q-1.304.12-2.607.281c-.442.04-.883.094-1.337.147q-.663.06-1.324.161c-.201.026-.388.04-.588.066-.977.121-1.966.254-2.942.388l-10.095 1.391a42.4 42.4 0 0 0-5.576 1.163c-10.643 2.928-19.588 9.814-25.204 18.987a42.88 42.88 0 0 0-25.205-18.987 42.5 42.5 0 0 0-5.575-1.163l-10.082-1.391c-.976-.134-1.952-.267-2.942-.388-.2-.026-.388-.04-.588-.066l-1.337-.161c-.441-.053-.883-.107-1.324-.147a85 85 0 0 0-2.607-.281c-1.016-.107-2.046-.2-3.076-.294-.989-.094-1.978-.174-2.981-.241-.428-.026-.856-.066-1.284-.093-.428-.04-.842-.067-1.27-.08-.067 0-.134-.014-.2-.014q-.242-.04-.482-.04h-.187c-.187 0-.388-.027-.575-.04-.495-.04-.99-.067-1.484-.094l-.923-.04c-2.38-.12-4.747-.2-7.127-.24-.575-.027-1.15-.027-1.738-.027v-.054c.588 0 1.163 0 1.738-.026a240 240 0 0 0 28.387-2.22l10.082-1.39a43 43 0 0 0 5.616-1.164A42.93 42.93 0 0 0 99.987 76.18c5.616 9.159 14.547 16.031 25.164 18.973 1.818.508 3.704.896 5.616 1.163l10.095 1.391c1.177.16 2.353.32 3.53.455.882.12 1.778.214 2.661.307q1.303.16 2.607.281c1.016.107 2.032.214 3.049.294.949.08 1.885.16 2.834.227.976.08 1.952.147 2.942.201.094.013.2.027.307.027 1.11.08 2.233.133 3.357.187 2.366.12 4.746.2 7.113.24.575.027 1.163.027 1.738.027z"/><path fill="#3E62FF" d="m108.758 39.089-.053.428s-.014-.067-.014-.094c0-.12.027-.24.067-.334"/><path fill="#EA94F2" d="M99.987 123.807a43 43 0 0 0-5.924 16.553l-2.78 20.177v.04l-.054.281a.86.86 0 0 1-.816.588.86.86 0 0 1-.842-.669 1 1 0 0 1-.027-.2l-2.795-20.217c-2.366-17.155-14.748-31.021-31.087-35.54a44 44 0 0 0-5.616-1.164l-20.177-2.794s-.147-.013-.214-.027a.87.87 0 0 1-.655-.815c.588 0 1.163 0 1.738.026 2.38.04 4.747.121 7.127.241l.923.04c.494.027.989.054 1.484.094l.575.04h.187q.24 0 .481.04c.067 0 .134.013.2.013.429.014.843.04 1.271.08.428.027.856.067 1.284.094 1.002.067 1.992.147 2.981.241 1.03.093 2.06.187 3.076.294q1.304.12 2.607.281c.441.04.883.093 1.324.147.454.053.896.107 1.337.16.2.027.388.04.588.067.99.12 1.966.254 2.942.388l10.082 1.39c1.898.268 3.77.656 5.575 1.164a42.88 42.88 0 0 1 25.205 18.987"/><path fill="#3E62FF" d="M171 100.02a.86.86 0 0 1-.655.815l-.187.027h-.027l-20.19 2.794a43 43 0 0 0-5.616 1.164c-16.353 4.519-28.721 18.385-31.088 35.54l-2.821 20.391a.86.86 0 0 1-.856.695.88.88 0 0 1-.802-.535l-.053-.428v-.08l-2.795-20.043a42.8 42.8 0 0 0-5.923-16.553c5.616-9.173 14.561-16.059 25.204-18.987a43 43 0 0 1 5.576-1.164l10.095-1.39c.976-.134 1.966-.268 2.942-.388.2-.027.387-.04.588-.067q.661-.1 1.324-.16c.454-.054.896-.107 1.337-.147a85 85 0 0 1 2.607-.281 224 224 0 0 1 3.049-.294c.949-.08 1.885-.161 2.834-.228.134 0 .254-.026.388-.026a79 79 0 0 1 2.554-.174c.094-.013.201-.027.308-.027q1.042-.08 2.085-.12c.428-.04.856-.054 1.271-.067a211 211 0 0 1 7.113-.241c.281-.013.575-.026.869-.013H171z"/><path fill="#3E62FF" d="M108.758 160.912a.9.9 0 0 1-.067-.334c0-.027 0-.067.014-.094z"/><path fill="#CED0FF" d="M99.987 76.193a42.93 42.93 0 0 1-25.164 18.974 43 43 0 0 1-5.616 1.163l-10.082 1.39a240 240 0 0 1-28.387 2.22c-.575.027-1.15.027-1.738.027a.874.874 0 0 1 .87-.843l20.176-2.794a44 44 0 0 0 5.616-1.163c16.34-4.52 28.72-18.372 31.087-35.527l2.795-20.217s.013-.134.027-.2a.864.864 0 0 1 1.658-.08l.053.28v.04l2.781 20.177a43 43 0 0 0 5.924 16.553"/><path fill="#B0BFFF" d="M171 99.967c-.575 0-1.163 0-1.738-.027-2.367-.04-4.747-.12-7.113-.24-1.123-.054-2.247-.108-3.356-.188-.107 0-.214-.013-.308-.027a105 105 0 0 1-2.942-.2c-.949-.067-1.885-.147-2.834-.227-1.016-.094-2.033-.188-3.049-.295a86 86 0 0 1-2.607-.28c-.883-.094-1.779-.188-2.661-.308-1.177-.134-2.353-.294-3.53-.454l-10.095-1.391a43 43 0 0 1-5.616-1.163c-10.617-2.942-19.548-9.815-25.164-18.974a42.8 42.8 0 0 0 5.923-16.553l2.795-20.124.053-.427a.88.88 0 0 1 .802-.535c.428 0 .776.294.856.695l2.821 20.39c2.367 17.156 14.735 31.008 31.088 35.528 1.819.508 3.704.895 5.616 1.163l20.19 2.794h.027l.187.027a.86.86 0 0 1 .655.816"/></g><defs><clipPath id="a"><path fill="#fff" d="M29 38.554h142v122.893H29z"/></clipPath></defs></svg>